<svg width="24" height="24" viewBox="0 0 24 24" fill="none" xmlns="http://www.w3.org/2000/svg">
<g clip-path="url(#clip0_1305_764)">
<g clip-path="url(#clip1_1305_764)">
<path d="M24 24H0V13.23L3.78 6.53001L7 11.53L10.17 6.46001L13.35 11.46L16.58 6.09001L19.21 10.05C19.21 7.35001 19.21 0.230013 19.21 0.230013C19.2 -0.0599871 19.98 1.2842e-05 23.53 1.2842e-05H23.99V23.99L24 24ZM1.01 23H22.94L23.01 0.990013H20.19L20.22 11.71V13.38L16.63 7.96001L13.38 13.36L10.19 8.34001L7.03 13.4L3.85 8.47001L1.02 13.5V23H1.01Z" fill="white"/>
<path d="M10.01 18.42C10.21 18.4467 10.4133 18.5267 10.62 18.66C10.8267 18.7933 11 18.9867 11.14 19.24C11.2867 19.4933 11.36 19.7967 11.36 20.15C11.36 20.7233 11.1767 21.1767 10.81 21.51C10.4433 21.8367 9.96667 22 9.38 22H6.82V15H9.23C9.83 15 10.3 15.1567 10.64 15.47C10.9867 15.7833 11.16 16.2167 11.16 16.77C11.16 17.2033 11.05 17.5633 10.83 17.85C10.6167 18.13 10.3433 18.32 10.01 18.42ZM7.67 18.12H9.18C9.52667 18.12 9.8 18.01 10 17.79C10.2067 17.5633 10.31 17.2667 10.31 16.9C10.31 16.52 10.2 16.22 9.98 16C9.76 15.78 9.46667 15.67 9.1 15.67H7.67V18.12ZM9.22 21.34C9.6 21.34 9.90667 21.2233 10.14 20.99C10.38 20.75 10.5 20.4367 10.5 20.05C10.5 19.69 10.3933 19.3867 10.18 19.14C9.96667 18.8867 9.66333 18.76 9.27 18.76H7.67V21.34H9.22ZM17.407 17.09C17.407 17.53 17.2936 17.9267 17.067 18.28C16.847 18.6267 16.5336 18.88 16.127 19.04L17.347 22H16.457L15.377 19.2C15.3303 19.2067 15.2536 19.21 15.147 19.21L13.707 19.2V22H12.827V15H15.177C15.6503 15 16.0536 15.0933 16.387 15.28C16.7203 15.4667 16.9736 15.72 17.147 16.04C17.3203 16.3533 17.407 16.7033 17.407 17.09ZM14.977 18.53C15.4703 18.53 15.847 18.4 16.107 18.14C16.3736 17.88 16.507 17.5333 16.507 17.1C16.507 16.6733 16.3736 16.33 16.107 16.07C15.847 15.81 15.4703 15.68 14.977 15.68H13.717V18.53H14.977Z" fill="white"/>
</g>
</g>
<defs>
<clipPath id="clip0_1305_764">
<rect width="24" height="24" fill="white"/>
</clipPath>
<clipPath id="clip1_1305_764">
<rect width="24" height="24" fill="white"/>
</clipPath>
</defs>
</svg>
